HIERARCHY
ROOT mixamorig:Hips
{
	OFFSET 0.000000 201.639420 0.000000
	CHANNELS 6 Xposition Yposition Zposition Xrotation Yrotation Zrotation
	JOINT mixamorig:Spine
	{
		OFFSET 0.006200 19.524994 -2.481800
		CHANNELS 3 Xrotation Yrotation Zrotation
		JOINT mixamorig:Spine1
		{
			OFFSET -0.000900 22.835007 -2.825400
			CHANNELS 3 Xrotation Yrotation Zrotation
			JOINT mixamorig:Spine2
			{
				OFFSET -0.020600 26.552490 -3.193300
				CHANNELS 3 Xrotation Yrotation Zrotation
				JOINT mixamorig:Neck
				{
					OFFSET -0.060000 30.701813 1.352200
					CHANNELS 3 Xrotation Yrotation Zrotation
					JOINT mixamorig:Head
					{
						OFFSET -0.087200 22.547607 3.670900
						CHANNELS 3 Xrotation Yrotation Zrotation
						JOINT mixamorig:HeadTop_End
						{
							OFFSET -0.830600 40.355194 7.893500
							CHANNELS 3 Xrotation Yrotation Zrotation
							End Site
							{
								OFFSET 0.000000 30.592346 0.000000
							}
						}
						JOINT mixamorig:RightEye
						{
							OFFSET -6.302100 18.118591 16.197100
							CHANNELS 3 Xrotation Yrotation Zrotation
							End Site
							{
								OFFSET 0.000000 30.592346 0.000000
							}
						}
						JOINT mixamorig:LeftEye
						{
							OFFSET 6.741500 18.382690 16.401899
							CHANNELS 3 Xrotation Yrotation Zrotation
							End Site
							{
								OFFSET 0.000000 30.592346 0.000000
							}
						}
					}
				}
				JOINT mixamorig:LeftShoulder
				{
					OFFSET 11.924900 18.230499 1.425400
					CHANNELS 3 Xrotation Yrotation Zrotation
					JOINT mixamorig:LeftArm
					{
						OFFSET 25.435989 -0.697632 -5.229300
						CHANNELS 3 Xrotation Yrotation Zrotation
						JOINT mixamorig:LeftForeArm
						{
							OFFSET 54.684776 0.000000 0.000000
							CHANNELS 3 Xrotation Yrotation Zrotation
							JOINT mixamorig:LeftHand
							{
								OFFSET 55.098175 0.000000 0.000000
								CHANNELS 3 Xrotation Yrotation Zrotation
								JOINT mixamorig:LeftHandMiddle1
								{
									OFFSET 23.369751 0.000000 0.000000
									CHANNELS 3 Xrotation Yrotation Zrotation
									JOINT mixamorig:LeftHandMiddle2
									{
										OFFSET 6.378677 0.000000 0.000000
										CHANNELS 3 Xrotation Yrotation Zrotation
										JOINT mixamorig:LeftHandMiddle3
										{
											OFFSET 6.148331 0.000000 0.000000
											CHANNELS 3 Xrotation Yrotation Zrotation
											JOINT mixamorig:LeftHandMiddle4
											{
												OFFSET 6.582504 0.000000 0.000000
												CHANNELS 3 Xrotation Yrotation Zrotation
												End Site
												{
													OFFSET -1.168900 6.395691 1.028606
												}
											}
										}
									}
								}
								JOINT mixamorig:LeftHandThumb1
								{
									OFFSET 7.235672 -3.848206 5.434273
									CHANNELS 3 Xrotation Yrotation Zrotation
									JOINT mixamorig:LeftHandThumb2
									{
										OFFSET 6.568451 -3.792297 3.792300
										CHANNELS 3 Xrotation Yrotation Zrotation
										JOINT mixamorig:LeftHandThumb3
										{
											OFFSET 6.063080 -3.500519 3.500518
											CHANNELS 3 Xrotation Yrotation Zrotation
											JOINT mixamorig:LeftHandThumb4
											{
												OFFSET 4.793182 -2.767334 2.767349
												CHANNELS 3 Xrotation Yrotation Zrotation
												End Site
												{
													OFFSET 0.101639 6.054260 1.275483
												}
											}
										}
									}
								}
								JOINT mixamorig:LeftHandIndex1
								{
									OFFSET 23.101074 -0.309540 4.992809
									CHANNELS 3 Xrotation Yrotation Zrotation
									JOINT mixamorig:LeftHandIndex2
									{
										OFFSET 6.226883 0.000000 0.000000
										CHANNELS 3 Xrotation Yrotation Zrotation
										JOINT mixamorig:LeftHandIndex3
										{
											OFFSET 6.094330 0.000000 0.000000
											CHANNELS 3 Xrotation Yrotation Zrotation
											JOINT mixamorig:LeftHandIndex4
											{
												OFFSET 5.482605 0.000000 0.000000
												CHANNELS 3 Xrotation Yrotation Zrotation
												End Site
												{
													OFFSET -1.427902 5.233032 0.797164
												}
											}
										}
									}
								}
								JOINT mixamorig:LeftHandRing1
								{
									OFFSET 22.299240 0.021149 -3.964172
									CHANNELS 3 Xrotation Yrotation Zrotation
									JOINT mixamorig:LeftHandRing2
									{
										OFFSET 6.321869 0.000000 0.000000
										CHANNELS 3 Xrotation Yrotation Zrotation
										JOINT mixamorig:LeftHandRing3
										{
											OFFSET 5.899796 0.000000 0.000000
											CHANNELS 3 Xrotation Yrotation Zrotation
											JOINT mixamorig:LeftHandRing4
											{
												OFFSET 6.517899 0.000000 0.000000
												CHANNELS 3 Xrotation Yrotation Zrotation
												End Site
												{
													OFFSET -1.637299 6.232208 0.980890
												}
											}
										}
									}
								}
								JOINT mixamorig:LeftHandPinky1
								{
									OFFSET 20.463791 -0.302338 -8.562233
									CHANNELS 3 Xrotation Yrotation Zrotation
									JOINT mixamorig:LeftHandPinky2
									{
										OFFSET 6.908646 0.000000 0.000000
										CHANNELS 3 Xrotation Yrotation Zrotation
										JOINT mixamorig:LeftHandPinky3
										{
											OFFSET 4.622849 0.000000 0.000000
											CHANNELS 3 Xrotation Yrotation Zrotation
											JOINT mixamorig:LeftHandPinky4
											{
												OFFSET 5.216080 0.000000 0.000000
												CHANNELS 3 Xrotation Yrotation Zrotation
												End Site
												{
													OFFSET -0.606308 5.116241 0.814926
												}
											}
										}
									}
								}
							}
						}
					}
				}
				JOINT mixamorig:RightShoulder
				{
					OFFSET -12.001300 18.284088 1.348900
					CHANNELS 3 Xrotation Yrotation Zrotation
					JOINT mixamorig:RightArm
					{
						OFFSET -25.308500 -0.751312 -5.164599
						CHANNELS 3 Xrotation Yrotation Zrotation
						JOINT mixamorig:RightForeArm
						{
							OFFSET -54.684429 0.000000 0.000000
							CHANNELS 3 Xrotation Yrotation Zrotation
							JOINT mixamorig:RightHand
							{
								OFFSET -55.150291 0.000000 0.000000
								CHANNELS 3 Xrotation Yrotation Zrotation
								JOINT mixamorig:RightHandMiddle1
								{
									OFFSET -23.317566 0.000000 0.000000
									CHANNELS 3 Xrotation Yrotation Zrotation
									JOINT mixamorig:RightHandMiddle2
									{
										OFFSET -6.378403 0.000000 0.000000
										CHANNELS 3 Xrotation Yrotation Zrotation
										JOINT mixamorig:RightHandMiddle3
										{
											OFFSET -6.148193 0.000000 0.000000
											CHANNELS 3 Xrotation Yrotation Zrotation
											JOINT mixamorig:RightHandMiddle4
											{
												OFFSET -6.583389 0.000000 0.000000
												CHANNELS 3 Xrotation Yrotation Zrotation
												End Site
												{
													OFFSET 1.171692 6.395905 1.029786
												}
											}
										}
									}
								}
								JOINT mixamorig:RightHandThumb1
								{
									OFFSET -7.190521 -3.860474 5.435846
									CHANNELS 3 Xrotation Yrotation Zrotation
									JOINT mixamorig:RightHandThumb2
									{
										OFFSET -6.567429 -3.791718 3.791708
										CHANNELS 3 Xrotation Yrotation Zrotation
										JOINT mixamorig:RightHandThumb3
										{
											OFFSET -6.062469 -3.500153 3.500166
											CHANNELS 3 Xrotation Yrotation Zrotation
											JOINT mixamorig:RightHandThumb4
											{
												OFFSET -4.792618 -2.767029 2.767022
												CHANNELS 3 Xrotation Yrotation Zrotation
												End Site
												{
													OFFSET -0.100327 6.053253 1.276754
												}
											}
										}
									}
								}
								JOINT mixamorig:RightHandIndex1
								{
									OFFSET -23.048981 -0.310791 4.992554
									CHANNELS 3 Xrotation Yrotation Zrotation
									JOINT mixamorig:RightHandIndex2
									{
										OFFSET -6.227539 0.000000 0.000000
										CHANNELS 3 Xrotation Yrotation Zrotation
										JOINT mixamorig:RightHandIndex3
										{
											OFFSET -6.095047 0.000000 0.000000
											CHANNELS 3 Xrotation Yrotation Zrotation
											JOINT mixamorig:RightHandIndex4
											{
												OFFSET -5.484772 0.000000 0.000000
												CHANNELS 3 Xrotation Yrotation Zrotation
												End Site
												{
													OFFSET 1.420593 5.237305 0.797056
												}
											}
										}
									}
								}
								JOINT mixamorig:RightHandRing1
								{
									OFFSET -22.246323 0.020569 -3.963762
									CHANNELS 3 Xrotation Yrotation Zrotation
									JOINT mixamorig:RightHandRing2
									{
										OFFSET -6.322128 0.000000 0.000000
										CHANNELS 3 Xrotation Yrotation Zrotation
										JOINT mixamorig:RightHandRing3
										{
											OFFSET -5.900024 0.000000 0.000000
											CHANNELS 3 Xrotation Yrotation Zrotation
											JOINT mixamorig:RightHandRing4
											{
												OFFSET -6.518356 0.000000 0.000000
												CHANNELS 3 Xrotation Yrotation Zrotation
												End Site
												{
													OFFSET 1.636398 6.232697 0.982186
												}
											}
										}
									}
								}
								JOINT mixamorig:RightHandPinky1
								{
									OFFSET -20.411011 -0.303314 -8.561701
									CHANNELS 3 Xrotation Yrotation Zrotation
									JOINT mixamorig:RightHandPinky2
									{
										OFFSET -6.907349 0.000000 0.000000
										CHANNELS 3 Xrotation Yrotation Zrotation
										JOINT mixamorig:RightHandPinky3
										{
											OFFSET -4.623840 0.000000 0.000000
											CHANNELS 3 Xrotation Yrotation Zrotation
											JOINT mixamorig:RightHandPinky4
											{
												OFFSET -5.218353 0.000000 0.000000
												CHANNELS 3 Xrotation Yrotation Zrotation
												End Site
												{
													OFFSET 0.602097 5.118835 0.816273
												}
											}
										}
									}
								}
							}
						}
					}
				}
			}
		}
	}
	JOINT mixamorig:LeftUpLeg
	{
		OFFSET 18.168400 -13.561905 -0.039000
		CHANNELS 3 Xrotation Yrotation Zrotation
		JOINT mixamorig:LeftLeg
		{
			OFFSET 0.577358 -80.825211 -3.695000
			CHANNELS 3 Xrotation Yrotation Zrotation
			JOINT mixamorig:LeftFoot
			{
				OFFSET -0.577356 -83.370262 -6.520700
				CHANNELS 3 Xrotation Yrotation Zrotation
				JOINT mixamorig:LeftToeBase
				{
					OFFSET 0.750401 -20.798306 25.135401
					CHANNELS 3 Xrotation Yrotation Zrotation
					JOINT mixamorig:LeftToe_End
					{
						OFFSET -0.000500 0.001200 19.917799
						CHANNELS 3 Xrotation Yrotation Zrotation
						End Site
						{
							OFFSET 0.000000 19.917805 0.000000
						}
					}
				}
			}
		}
	}
	JOINT mixamorig:RightUpLeg
	{
		OFFSET -18.162500 -13.585098 -0.041000
		CHANNELS 3 Xrotation Yrotation Zrotation
		JOINT mixamorig:RightLeg
		{
			OFFSET -0.595024 -80.945297 -3.631900
			CHANNELS 3 Xrotation Yrotation Zrotation
			JOINT mixamorig:RightFoot
			{
				OFFSET 0.595024 -83.218193 -6.561200
				CHANNELS 3 Xrotation Yrotation Zrotation
				JOINT mixamorig:RightToeBase
				{
					OFFSET -0.753601 -20.807106 25.115000
					CHANNELS 3 Xrotation Yrotation Zrotation
					JOINT mixamorig:RightToe_End
					{
						OFFSET 0.000299 0.001700 19.918200
						CHANNELS 3 Xrotation Yrotation Zrotation
						End Site
						{
							OFFSET 0.000000 19.918203 0.000000
						}
					}
				}
			}
		}
	}
}
MOTION
Frames: 4
Frame Time: 0.033333
-352.408661 237.560028 -70.038910 56.148595 -19.817058 -323.411807 1.220156 4.403838 0.062282 3.846167 4.202549 -5.325233 3.812189 4.126744 -5.409963 -1.988390 4.852312 -11.238566 -10.490090 3.366422 1.908023 -0.000001 0.000000 0.000001 -0.000001 0.000000 0.000001 -0.000001 0.000000 0.000001 5.714383 -14.034645 23.310365 -211.011905 -149.880291 -213.800617 0.000011 -44.177701 0.000017 -68.450981 -25.935903 15.353546 1.294740 5.948185 -37.842250 0.837997 3.021139 -30.998984 0.956469 3.209822 -33.178682 -0.000001 -0.000002 0.000004 -18.038267 6.424187 -2.444400 15.886875 4.597548 19.092527 2.348012 -2.146047 6.995803 -0.000003 0.000000 0.000000 6.710662 3.857790 -25.621233 0.311541 1.886693 -18.750524 0.311835 1.887619 -18.760125 -0.000001 0.000001 -0.000001 1.594726 6.302976 -42.575083 0.972524 3.234228 -33.464635 1.088573 3.402968 -35.468704 0.000001 -0.000001 -0.000001 -3.007483 16.130105 -30.324537 1.538345 3.957906 -42.466821 1.546466 3.966739 -42.584310 0.000001 -0.000001 0.000001 3.974073 19.454957 -10.877458 -18.976091 37.091376 18.152642 0.000006 2.430747 -0.000001 -11.101701 8.828451 -7.350669 0.689371 -4.639611 30.384797 0.662617 -2.396267 30.910489 0.472525 -2.045837 26.008665 -0.000001 0.000004 -0.000000 -32.494956 -11.446307 13.858394 12.598410 -19.187291 -18.306256 5.204571 -4.332511 -9.032222 -0.000002 0.000001 0.000004 0.340091 -3.894739 20.247464 0.334012 -1.733570 21.810194 0.334028 -1.733578 21.810128 0.000002 -0.000002 -0.000002 1.041458 -5.155227 38.076259 0.460580 -2.021186 25.671818 0.530306 -2.160148 27.583021 0.000000 0.000001 0.000005 -8.861406 -15.919361 26.277637 1.010511 -2.898691 38.431169 1.015935 -2.905511 38.538434 0.000000 0.000000 0.000000 -49.268910 -2.761535 5.802720 4.239138 10.409084 4.841649 38.366166 -13.076949 -29.283036 -5.164146 0.000003 -0.000006 0.000002 0.000000 0.000001 -16.464301 -19.863116 5.702638 95.483688 -4.880519 3.185736 41.060515 10.591558 28.685138 8.723777 -0.000009 -0.000000 -0.000001 -0.000000 0.000000 
-365.039978 246.157669 -73.723846 43.011914 4.125093 -333.952455 1.548543 3.964902 3.655302 4.733401 4.003302 0.009129 4.710811 4.037432 -0.086105 -7.324585 7.491008 -12.527137 -12.302550 12.031909 4.451915 -0.000001 0.000000 0.000001 -0.000001 0.000000 0.000001 -0.000001 0.000000 0.000001 3.652807 -11.597323 25.740621 -225.751863 -129.180952 -243.230413 -0.000004 -55.363481 -0.000003 -56.494062 -18.004413 14.651924 1.704388 6.419305 -44.017451 0.931512 3.171377 -32.730144 1.065450 3.370330 -35.077423 -0.000001 0.000003 -0.000002 -19.988255 8.565105 -7.207625 15.761601 5.171491 19.200130 2.367868 -1.336391 7.104470 -0.000001 -0.000000 0.000001 6.684148 3.990129 -31.501860 0.368543 2.046911 -20.411978 0.369096 2.048368 -20.427209 0.000001 -0.000004 0.000002 2.057033 6.754384 -49.112482 1.134648 3.466628 -36.237818 1.259028 3.629918 -38.247379 0.000000 0.000000 -0.000001 -1.894824 16.964865 -37.443159 1.675075 4.101946 -44.412349 1.683491 4.110495 -44.529832 0.000002 -0.000003 0.000000 4.533417 20.490885 -15.525672 -24.178579 33.076222 39.746138 -0.000013 6.094183 0.000022 -8.625341 8.759817 -7.308117 0.906257 -4.974429 35.296573 0.896998 -2.749784 36.128125 0.767544 -2.563236 33.335274 -0.000001 -0.000001 -0.000003 -24.860435 -8.167047 12.974658 11.336127 -22.442666 -16.707286 5.429724 -4.931029 -9.035854 0.000001 -0.000002 0.000001 0.464528 -4.197927 24.282040 0.466555 -2.033549 25.840849 0.466554 -2.033554 25.840791 0.000003 0.000001 -0.000001 1.212920 -5.360723 41.372020 0.722133 -2.492878 32.305651 0.808683 -2.624623 34.244106 -0.000000 0.000005 0.000000 -7.389536 -15.825791 29.277527 1.315492 -3.245665 44.117046 1.321736 -3.252073 44.227415 0.000000 -0.000003 0.000001 -45.375785 -0.577253 10.203211 7.009823 10.002353 -3.178620 42.914253 -18.746743 -25.392202 -5.542955 0.000000 0.000002 0.000005 0.000000 -0.000000 -19.390226 -15.751576 12.371064 99.695012 -6.895400 1.122261 36.633050 10.889602 28.667380 12.312844 -0.000019 -0.000001 -0.000000 0.000002 0.000001 
-378.533173 249.860245 -78.072067 31.260639 30.188920 -328.775063 1.362402 3.672211 2.530811 3.773884 3.582731 -0.172348 3.755127 3.603382 -0.230759 -11.660542 8.705245 -12.011296 -14.717318 16.904066 6.744995 -0.000000 0.000001 0.000001 -0.000000 0.000001 0.000001 -0.000000 0.000001 0.000001 1.382913 -5.827682 25.498606 -256.667909 -119.690377 -285.078108 -0.000048 -69.884938 -0.000060 -36.998008 -8.339195 10.530159 2.223735 6.894335 -50.983701 1.048646 3.346334 -34.790655 1.202074 3.556635 -37.338728 -0.000000 -0.000000 0.000000 -21.782170 11.376184 -12.375475 15.608814 5.891187 19.328517 2.401363 -0.430368 7.222211 -0.000002 0.000000 0.000001 6.602548 4.152774 -38.112418 0.442852 2.236314 -22.400008 0.443685 2.238306 -22.421049 -0.000003 0.000001 0.000001 2.635834 7.199352 -56.511961 1.342678 3.733394 -39.549995 1.476674 3.889598 -41.565454 -0.000001 0.000002 0.000001 -0.552124 17.816441 -45.580475 1.843519 4.266638 -46.720598 1.852260 4.274857 -46.837944 -0.000001 -0.000003 0.000001 3.557585 20.711811 -6.937044 -20.000124 36.000551 47.688815 0.000005 8.112407 0.000008 -4.619379 7.739129 -7.747750 1.123720 -5.256842 39.686032 1.134022 -3.047684 40.812084 1.093981 -3.000741 40.053005 -0.000003 -0.000000 -0.000002 -17.752118 -4.914936 11.744118 10.236957 -25.097245 -15.302866 5.626113 -5.437275 -9.029641 0.000002 -0.000001 0.000001 0.591778 -4.457403 27.840705 0.600688 -2.289708 29.395427 0.600687 -2.289724 29.395396 0.000005 -0.000003 0.000001 1.371448 -5.531119 44.238240 1.008450 -2.896095 38.390410 1.109828 -3.019478 40.355206 -0.000002 0.000002 0.000000 -6.027408 -15.598532 31.855821 1.621674 -3.533634 49.291979 1.628647 -3.539614 49.405333 -0.000004 -0.000001 -0.000004 -43.090943 0.152767 3.409833 7.295784 9.954062 2.989103 42.269848 -15.472863 -30.552106 -5.448581 0.000026 -0.000010 -0.000000 -0.000003 -0.000000 -22.357209 -7.980177 11.467727 100.740530 -8.827630 -1.014042 31.003195 5.165549 28.899309 11.801830 0.000016 0.000007 -0.000001 0.000001 -0.000000 
-392.874634 248.583221 -80.991486 0.283314 59.398323 -302.645272 2.182611 3.381252 -1.295951 3.330480 2.231734 0.568762 3.323418 2.630894 0.443465 -11.892911 9.681606 -16.160958 -20.250729 17.425583 6.309144 -0.000000 0.000003 -0.000001 -0.000000 0.000003 -0.000001 -0.000000 0.000003 -0.000001 0.928560 -11.912612 11.298222 -242.250253 -115.154080 -279.302500 -0.000016 -79.073496 -0.000020 -31.320498 -7.249816 12.324890 2.833437 7.326247 -58.383070 1.183512 3.532209 -37.038432 1.359471 3.753567 -39.807077 -0.000001 -0.000002 0.000004 -23.164920 14.741713 -17.688839 15.437802 6.713938 19.470013 2.448022 0.497791 7.332940 0.000002 -0.000000 -0.000001 6.468467 4.370001 -45.116012 0.531802 2.440791 -24.579494 0.532921 2.443269 -24.605922 0.000000 0.000003 0.000004 3.306969 7.589410 -64.385892 1.587561 4.010887 -43.175122 1.731546 4.158639 -45.196386 0.000000 0.000003 -0.000002 0.984025 18.617571 -54.315047 2.034060 4.437848 -49.230877 2.043139 4.445655 -49.348031 -0.000002 0.000002 0.000003 3.647378 21.990431 -7.702812 -11.661245 34.058540 51.770467 0.000032 14.790520 -0.000020 -6.681942 5.510338 -8.064553 1.300729 -5.457207 42.978573 1.328665 -3.259174 44.349159 1.381920 -3.312667 45.278331 -0.000001 0.000001 -0.000003 -12.039282 -2.213999 10.345714 9.468005 -26.847845 -14.264823 5.768392 -5.785818 -9.016067 0.000000 0.000005 0.000000 0.695601 -4.642935 30.459191 0.709328 -2.472565 32.010604 0.709351 -2.472560 32.010580 -0.000000 -0.000001 -0.000001 1.490768 -5.648761 46.302050 1.259865 -3.187408 43.125954 1.372348 -3.303173 45.112597 -0.000002 0.000001 -0.000001 -4.943073 -15.312236 33.676237 1.874350 -3.735797 53.276322 1.881911 -3.741394 53.392193 0.000000 -0.000001 0.000002 -40.884963 2.589040 -0.365925 7.777960 9.909530 -0.043560 41.547108 -13.485619 -30.712362 -4.477072 0.000029 -0.000003 -0.000000 -0.000000 -0.000002 -21.544003 -4.512712 10.940512 97.840575 -9.472661 -0.594291 26.025136 -3.254989 29.255599 14.003443 0.000002 -0.000013 0.000001 0.000000 0.000000 
